<svg width="490" height="34" viewBox="0 0 490 34" fill="none" xmlns="http://www.w3.org/2000/svg">
<path d="M19.8789 24.2031C17.4831 25.6354 14.9701 26.3646 12.3398 26.3906C8.74609 26.3906 5.82943 25.1927 3.58984 22.7969C1.48047 20.4792 0.425781 17.6146 0.425781 14.2031C0.425781 11.3906 1.18099 8.90365 2.69141 6.74219C4.87891 3.69531 8.02995 2.17188 12.1445 2.17188C13.3945 2.17188 14.6185 2.3151 15.8164 2.60156C17.6393 3.07031 18.9284 3.68229 19.6836 4.4375C19.6836 3.73438 19.7227 3.22656 19.8008 2.91406C19.931 2.54948 20.2826 2.36719 20.8555 2.36719L20.9727 9.55469H20.0352C19.8529 8.98177 19.6315 8.42188 19.3711 7.875C17.9128 4.80208 15.556 3.26562 12.3008 3.26562C10.8685 3.26562 9.56641 3.63021 8.39453 4.35938C5.71224 6.10417 4.37109 9.41146 4.37109 14.2812C4.37109 16.5469 4.67057 18.513 5.26953 20.1797C6.49349 23.5911 8.79818 25.2969 12.1836 25.2969C16.168 25.2708 18.8242 23.1094 20.1523 18.8125H21.0898V26.1953C20.7773 26.1953 20.5299 26.1562 20.3477 26.0781C20.0352 25.9219 19.8789 25.2969 19.8789 24.2031ZM30.7695 25.0234C30.9258 25.0234 31.056 25.0365 31.1602 25.0625C31.5508 25.1146 31.7461 25.4271 31.7461 26H22.0977V25.0234C22.9831 25.0234 23.6211 24.9583 24.0117 24.8281C24.6888 24.5938 25.0273 23.8776 25.0273 22.6797V10.375H22.0977V9.39844H27.7617L27.918 13.2656C28.2565 12.4844 28.7122 11.7812 29.2852 11.1562C30.5091 9.82812 31.9023 9.16406 33.4648 9.16406C33.6992 9.16406 33.9466 9.1901 34.207 9.24219C35.4049 9.5026 36.0039 10.2188 36.0039 11.3906C36.0039 11.5469 35.9779 11.7031 35.9258 11.8594C35.7174 12.6146 35.2227 12.9922 34.4414 12.9922C34.2852 12.9922 34.1289 12.9661 33.9727 12.9141C33.6081 12.8099 33.2174 12.3932 32.8008 11.6641C32.4362 11.013 32.0326 10.6875 31.5898 10.6875C31.1992 10.7135 30.7174 11 30.1445 11.5469C28.6862 12.9792 27.957 14.8802 27.957 17.25V25.0234H30.7695ZM49.4727 26.3906C47.6497 26.3646 46.582 25.1927 46.2695 22.875C46.0352 23.4219 45.6836 23.9427 45.2148 24.4375C43.9128 25.7396 42.3112 26.3906 40.4102 26.3906C39.6289 26.3906 38.8867 26.2474 38.1836 25.9609C36.4388 25.2318 35.5664 23.8776 35.5664 21.8984C35.5664 21.3255 35.6445 20.7917 35.8008 20.2969C36.6862 17.7448 40.1888 16.4688 46.3086 16.4688V14.0078C46.2305 11.4818 44.9674 10.1406 42.5195 9.98438C41.4779 9.98438 40.7096 10.3099 40.2148 10.9609C40.0846 11.1432 39.8372 11.7161 39.4727 12.6797C39.1862 13.4349 38.7435 13.8125 38.1445 13.8125C38.0143 13.8125 37.8841 13.7995 37.7539 13.7734C36.9987 13.6432 36.6211 13.1745 36.6211 12.3672C36.6211 11.9245 36.7773 11.4818 37.0898 11.0391C38.0794 9.6849 40.0326 9.00781 42.9492 9.00781C43.1836 9.00781 43.418 9.00781 43.6523 9.00781C47.3763 9.21615 49.2383 11.1823 49.2383 14.9062V23.1484C49.2643 24.4505 49.6159 25.1276 50.293 25.1797C51.1263 25.1536 51.6341 24.1901 51.8164 22.2891L52.832 22.3281C52.832 22.4583 52.819 22.6016 52.793 22.7578C52.5846 25.1797 51.4779 26.3906 49.4727 26.3906ZM41.6992 24.8281C42.2721 24.8281 42.8581 24.6979 43.457 24.4375C44.9674 23.7083 45.918 22.4453 46.3086 20.6484V17.5234C44.2773 17.5495 42.7279 17.6797 41.6602 17.9141C39.6549 18.3828 38.6523 19.4896 38.6523 21.2344C38.6523 21.6771 38.6914 22.0807 38.7695 22.4453C39.1341 24.0339 40.1107 24.8281 41.6992 24.8281ZM60.832 25.0234C60.9883 25.0234 61.1185 25.0365 61.2227 25.0625C61.6133 25.1146 61.8086 25.4271 61.8086 26H52.2383V25.0234C53.1237 25.0234 53.7617 24.9583 54.1523 24.8281C54.8294 24.5938 55.168 23.8776 55.168 22.6797V10.375H52.4336V9.39844H55.168V8.77344C55.168 6.63802 55.5716 4.86719 56.3789 3.46094C57.5768 1.42969 59.3997 0.414062 61.8477 0.414062C62.7852 0.414062 63.6315 0.557292 64.3867 0.84375C65.6888 1.39062 66.3398 2.14583 66.3398 3.10938C66.3398 3.21354 66.3268 3.33073 66.3008 3.46094C66.1445 4.1901 65.6367 4.55469 64.7773 4.55469C64.5169 4.55469 64.2826 4.47656 64.0742 4.32031C63.8659 4.16406 63.5273 3.66927 63.0586 2.83594C62.5117 1.8724 61.8346 1.39062 61.0273 1.39062C60.6888 1.39062 60.3763 1.45573 60.0898 1.58594C58.7617 2.1849 58.0977 4.71094 58.0977 9.16406V9.39844H62.5898V10.375H58.0977V25.0234H60.832ZM61.6836 10.375V9.39844H64.418V5.6875L67.3477 4.86719V9.39844H73.4023V10.375H67.3477V22.25C67.3737 24.2031 68.0898 25.2057 69.4961 25.2578C70.7461 25.0755 71.6966 23.9036 72.3477 21.7422L73.4023 21.9375C73.4023 21.9635 73.4023 21.9896 73.4023 22.0156C72.8034 24.9583 71.306 26.4297 68.9102 26.4297C66.0977 26.3255 64.6003 24.6458 64.418 21.3906V10.375H61.6836ZM80.7773 25.0234C80.9076 25.0234 81.0378 25.0365 81.168 25.0625C81.5586 25.1146 81.7539 25.4271 81.7539 26H72.7695V25.0234C73.6549 25.0234 74.293 24.9714 74.6836 24.8672C75.4909 24.6068 75.8945 23.8776 75.8945 22.6797V10.375H72.7695V9.39844H78.8242V25.0234H80.7773ZM79.293 3.69531C79.293 4.00781 79.2279 4.30729 79.0977 4.59375C78.7331 5.42708 78.0951 5.84375 77.1836 5.84375C76.8971 5.84375 76.6107 5.79167 76.3242 5.6875C75.4648 5.32292 75.0352 4.65885 75.0352 3.69531C75.0352 3.38281 75.1003 3.08333 75.2305 2.79688C75.6211 1.96354 76.2721 1.54688 77.1836 1.54688C77.4701 1.54688 77.7695 1.61198 78.082 1.74219C78.8893 2.13281 79.293 2.78385 79.293 3.69531ZM89.7148 25.0234C89.8711 25.0234 90.0013 25.0365 90.1055 25.0625C90.4961 25.1146 90.6914 25.4271 90.6914 26H82.0977V25.0234C82.9831 25.0234 83.6211 24.9583 84.0117 24.8281C84.6888 24.5938 85.0273 23.8776 85.0273 22.6797V10.375H82.0977V9.39844H87.7617L87.918 13.3047C88.2044 12.5755 88.582 11.9115 89.0508 11.3125C90.3008 9.77604 91.8893 9.00781 93.8164 9.00781C94.7799 9.00781 95.6784 9.25521 96.5117 9.75C98.3086 10.8698 99.207 12.7318 99.207 15.3359V25.0234H101.16C101.316 25.0234 101.447 25.0365 101.551 25.0625C101.941 25.1146 102.137 25.4271 102.137 26H93.3477V25.0234C94.2331 25.0234 94.8711 24.9583 95.2617 24.8281C95.9388 24.5938 96.2773 23.8776 96.2773 22.6797V14.9453C96.2773 14.1901 96.1602 13.513 95.9258 12.9141C95.3529 11.4297 94.2721 10.6875 92.6836 10.6875C91.9544 10.6875 91.2383 10.9089 90.5352 11.3516C88.8945 12.4193 88.0352 14.1641 87.957 16.5859V25.0234H89.7148ZM106.191 15.1797C106.217 18.6953 107.52 20.4792 110.098 20.5312C112.624 20.5052 113.913 18.7214 113.965 15.1797C113.939 11.7682 112.65 10.0365 110.098 9.98438C107.546 10.0104 106.243 11.7422 106.191 15.1797ZM110.137 9.00781C111.491 9.00781 112.754 9.30729 113.926 9.90625C114.082 9.41146 114.303 8.95573 114.59 8.53906C115.345 7.44531 116.335 6.89844 117.559 6.89844C117.845 6.89844 118.132 6.95052 118.418 7.05469C119.173 7.34115 119.551 7.88802 119.551 8.69531C119.447 9.3724 119.069 9.78906 118.418 9.94531C118.184 9.94531 117.923 9.8151 117.637 9.55469C117.22 9.16406 116.829 8.96875 116.465 8.96875C116.361 8.96875 116.257 8.98177 116.152 9.00781C115.501 9.16406 115.059 9.65885 114.824 10.4922C116.309 11.6641 117.064 13.2266 117.09 15.1797C117.09 16.7161 116.595 18.0443 115.605 19.1641C114.225 20.7266 112.376 21.5078 110.059 21.5078L106.621 21.4688C106.413 21.4688 106.217 21.4818 106.035 21.5078C105.176 21.6901 104.746 22.1198 104.746 22.7969C104.772 23.7604 105.384 24.2812 106.582 24.3594L113.691 24.5156C114.056 24.5156 114.408 24.5417 114.746 24.5938C117.324 24.9323 118.613 26.2214 118.613 28.4609C118.613 29.1901 118.405 29.8802 117.988 30.5312C116.712 32.4583 114.095 33.4219 110.137 33.4219C108.574 33.4219 107.259 33.1875 106.191 32.7188C104.499 32.0156 103.652 30.9479 103.652 29.5156C103.652 28.5781 104.082 27.6536 104.941 26.7422C103.848 26.0651 103.288 25.0365 103.262 23.6562C103.262 23.3177 103.301 22.9792 103.379 22.6406C103.796 21.2083 104.837 20.4922 106.504 20.4922C106.322 20.388 106.139 20.2708 105.957 20.1406C104.03 18.8385 103.066 17.1979 103.066 15.2188C103.066 13.7083 103.561 12.3932 104.551 11.2734C105.931 9.76302 107.793 9.00781 110.137 9.00781ZM110.137 32.4062C111.361 32.4062 112.493 32.276 113.535 32.0156C115.671 31.4948 116.738 30.6615 116.738 29.5156C116.738 29.2031 116.699 28.9427 116.621 28.7344C116.309 27.875 115.176 27.4323 113.223 27.4062L107.207 27.3281C106.868 27.3281 106.439 27.276 105.918 27.1719C105.319 27.875 105.007 28.5781 104.98 29.2812C104.98 29.6458 105.072 30.0104 105.254 30.375C105.931 31.7292 107.559 32.4062 110.137 32.4062ZM133.246 9.98438C132.569 9.98438 131.931 10.1406 131.332 10.4531C129.509 11.3646 128.533 13.3177 128.402 16.3125L132.543 16.4297C133.741 16.4557 134.665 16.4036 135.316 16.2734C136.566 15.987 137.191 15.1927 137.191 13.8906C137.191 13.3177 137.087 12.7839 136.879 12.2891C136.28 10.7526 135.069 9.98438 133.246 9.98438ZM140.043 22.25C139.887 22.6146 139.704 22.9792 139.496 23.3438C138.168 25.375 136.098 26.3906 133.285 26.3906C131.514 26.3906 129.939 25.9349 128.559 25.0234C126.241 23.4609 125.082 21.0651 125.082 17.8359C125.082 16.0651 125.447 14.4766 126.176 13.0703C127.582 10.362 129.913 9.00781 133.168 9.00781C134.835 9.00781 136.306 9.38542 137.582 10.1406C139.379 11.1823 140.277 12.5885 140.277 14.3594C140.277 15.3229 139.926 16.0651 139.223 16.5859C138.311 17.237 136.267 17.5365 133.09 17.4844L128.402 17.4062C128.428 18.5 128.546 19.5026 128.754 20.4141C129.457 23.6693 131.176 25.2969 133.91 25.2969C134.145 25.2969 134.392 25.2839 134.652 25.2578C136.684 24.9974 138.155 23.8776 139.066 21.8984L140.043 22.25ZM139.684 26C139.684 25.8177 139.697 25.6484 139.723 25.4922C139.775 25.2318 139.996 25.0755 140.387 25.0234C141.168 24.9193 141.819 24.5286 142.34 23.8516L146.832 17.9922L141.559 10.375H139.645V9.39844H147.457V10.375H144.879L148.902 16.2344L153.121 10.375H150.387V9.39844H156.246C156.246 9.60677 156.233 9.77604 156.207 9.90625C156.129 10.1667 155.882 10.3099 155.465 10.3359C154.658 10.4401 154.007 10.8438 153.512 11.5469L149.488 17.1328L154.879 25.0234H155.621C155.777 25.0234 155.908 25.0365 156.012 25.0625C156.402 25.1146 156.598 25.4271 156.598 26H149.332V25.0234H151.715L147.457 18.8906L142.809 25.0234H145.738V26H139.684ZM161.473 32.4453H164.207C164.363 32.4453 164.493 32.4583 164.598 32.4844C164.988 32.5365 165.184 32.849 165.184 33.4219H155.613V32.4453C156.499 32.4453 157.137 32.3802 157.527 32.25C158.204 32.0156 158.543 31.2995 158.543 30.1016V10.375H155.613V9.39844H161.238L161.434 13.6562C161.642 13.0833 161.902 12.5365 162.215 12.0156C163.465 10.0104 165.353 9.00781 167.879 9.00781C169.52 9.00781 170.913 9.52865 172.059 10.5703C173.699 12.1068 174.52 14.3594 174.52 17.3281C174.52 19.9323 173.764 22.0807 172.254 23.7734C170.691 25.5182 168.751 26.3906 166.434 26.3906C164.559 26.2865 162.905 25.6094 161.473 24.3594V32.4453ZM166.629 10.5703C165.691 10.5703 164.832 10.8568 164.051 11.4297C162.306 12.7318 161.434 15.0755 161.434 18.4609C161.434 19.9193 161.629 21.1823 162.02 22.25C162.775 24.3594 164.155 25.4141 166.16 25.4141C166.863 25.4141 167.514 25.2708 168.113 24.9844C170.171 23.9688 171.199 21.5469 171.199 17.7188C171.199 16.651 171.108 15.6875 170.926 14.8281C170.327 11.9896 168.895 10.5703 166.629 10.5703ZM183.809 9.98438C183.132 9.98438 182.493 10.1406 181.895 10.4531C180.072 11.3646 179.095 13.3177 178.965 16.3125L183.105 16.4297C184.303 16.4557 185.228 16.4036 185.879 16.2734C187.129 15.987 187.754 15.1927 187.754 13.8906C187.754 13.3177 187.65 12.7839 187.441 12.2891C186.842 10.7526 185.632 9.98438 183.809 9.98438ZM190.605 22.25C190.449 22.6146 190.267 22.9792 190.059 23.3438C188.73 25.375 186.66 26.3906 183.848 26.3906C182.077 26.3906 180.501 25.9349 179.121 25.0234C176.803 23.4609 175.645 21.0651 175.645 17.8359C175.645 16.0651 176.009 14.4766 176.738 13.0703C178.145 10.362 180.475 9.00781 183.73 9.00781C185.397 9.00781 186.868 9.38542 188.145 10.1406C189.941 11.1823 190.84 12.5885 190.84 14.3594C190.84 15.3229 190.488 16.0651 189.785 16.5859C188.874 17.237 186.829 17.5365 183.652 17.4844L178.965 17.4062C178.991 18.5 179.108 19.5026 179.316 20.4141C180.02 23.6693 181.738 25.2969 184.473 25.2969C184.707 25.2969 184.954 25.2839 185.215 25.2578C187.246 24.9974 188.717 23.8776 189.629 21.8984L190.605 22.25ZM200.129 25.0234C200.285 25.0234 200.415 25.0365 200.52 25.0625C200.91 25.1146 201.105 25.4271 201.105 26H191.457V25.0234C192.342 25.0234 192.98 24.9583 193.371 24.8281C194.048 24.5938 194.387 23.8776 194.387 22.6797V10.375H191.457V9.39844H197.121L197.277 13.2656C197.616 12.4844 198.072 11.7812 198.645 11.1562C199.868 9.82812 201.262 9.16406 202.824 9.16406C203.059 9.16406 203.306 9.1901 203.566 9.24219C204.764 9.5026 205.363 10.2188 205.363 11.3906C205.363 11.5469 205.337 11.7031 205.285 11.8594C205.077 12.6146 204.582 12.9922 203.801 12.9922C203.645 12.9922 203.488 12.9661 203.332 12.9141C202.967 12.8099 202.577 12.3932 202.16 11.6641C201.796 11.013 201.392 10.6875 200.949 10.6875C200.559 10.7135 200.077 11 199.504 11.5469C198.046 12.9792 197.316 14.8802 197.316 17.25V25.0234H200.129ZM204.34 10.375V9.39844H207.074V5.6875L210.004 4.86719V9.39844H216.059V10.375H210.004V22.25C210.03 24.2031 210.746 25.2057 212.152 25.2578C213.402 25.0755 214.353 23.9036 215.004 21.7422L216.059 21.9375C216.059 21.9635 216.059 21.9896 216.059 22.0156C215.46 24.9583 213.962 26.4297 211.566 26.4297C208.754 26.3255 207.257 24.6458 207.074 21.3906V10.375H204.34ZM228.66 25.0234C228.79 25.0234 228.921 25.0365 229.051 25.0625C229.441 25.1406 229.637 25.4531 229.637 26H221.043V25.0234C221.928 25.0234 222.566 24.9583 222.957 24.8281C223.634 24.5938 223.973 23.8776 223.973 22.6797V10.375H221.043V9.39844H226.707L226.863 13.3047C227.124 12.6016 227.475 11.9635 227.918 11.3906C229.142 9.80208 230.691 9.00781 232.566 9.00781C233.061 9.00781 233.543 9.09896 234.012 9.28125C235.6 9.88021 236.629 11.2083 237.098 13.2656C237.306 12.7448 237.566 12.25 237.879 11.7812C239.077 9.93229 240.665 9.00781 242.645 9.00781C243.556 9.00781 244.402 9.24219 245.184 9.71094C246.928 10.7786 247.801 12.6536 247.801 15.3359V25.0234H249.793C249.949 25.0234 250.079 25.0365 250.184 25.0625C250.574 25.1146 250.77 25.4271 250.77 26H242.137V25.0234C243.022 25.0234 243.647 24.9583 244.012 24.8281C244.585 24.5938 244.871 23.8776 244.871 22.6797V14.9453C244.871 14.112 244.741 13.3698 244.48 12.7188C243.934 11.3385 242.996 10.6484 241.668 10.6484C241.173 10.6484 240.652 10.7786 240.105 11.0391C238.673 11.7943 237.749 13.1224 237.332 15.0234V15.3359V25.0234H239.09C239.246 25.0234 239.376 25.0365 239.48 25.0625C239.871 25.1146 240.066 25.4271 240.066 26H231.668V25.0234C232.553 25.0234 233.178 24.9583 233.543 24.8281C234.116 24.5938 234.402 23.8776 234.402 22.6797V14.9453C234.402 14.1641 234.298 13.4609 234.09 12.8359C233.595 11.4036 232.697 10.6875 231.395 10.6875C230.691 10.6875 229.988 10.9479 229.285 11.4688C227.775 12.5885 226.98 14.2943 226.902 16.5859V25.0234H228.66ZM265.02 26.3906C263.197 26.3646 262.129 25.1927 261.816 22.875C261.582 23.4219 261.23 23.9427 260.762 24.4375C259.46 25.7396 257.858 26.3906 255.957 26.3906C255.176 26.3906 254.434 26.2474 253.73 25.9609C251.986 25.2318 251.113 23.8776 251.113 21.8984C251.113 21.3255 251.191 20.7917 251.348 20.2969C252.233 17.7448 255.736 16.4688 261.855 16.4688V14.0078C261.777 11.4818 260.514 10.1406 258.066 9.98438C257.025 9.98438 256.257 10.3099 255.762 10.9609C255.632 11.1432 255.384 11.7161 255.02 12.6797C254.733 13.4349 254.29 13.8125 253.691 13.8125C253.561 13.8125 253.431 13.7995 253.301 13.7734C252.546 13.6432 252.168 13.1745 252.168 12.3672C252.168 11.9245 252.324 11.4818 252.637 11.0391C253.626 9.6849 255.579 9.00781 258.496 9.00781C258.73 9.00781 258.965 9.00781 259.199 9.00781C262.923 9.21615 264.785 11.1823 264.785 14.9062V23.1484C264.811 24.4505 265.163 25.1276 265.84 25.1797C266.673 25.1536 267.181 24.1901 267.363 22.2891L268.379 22.3281C268.379 22.4583 268.366 22.6016 268.34 22.7578C268.132 25.1797 267.025 26.3906 265.02 26.3906ZM257.246 24.8281C257.819 24.8281 258.405 24.6979 259.004 24.4375C260.514 23.7083 261.465 22.4453 261.855 20.6484V17.5234C259.824 17.5495 258.275 17.6797 257.207 17.9141C255.202 18.3828 254.199 19.4896 254.199 21.2344C254.199 21.6771 254.238 22.0807 254.316 22.4453C254.681 24.0339 255.658 24.8281 257.246 24.8281ZM281.457 26L281.145 21.8594C279.868 24.8281 277.811 26.3385 274.973 26.3906C273.592 26.3906 272.329 25.987 271.184 25.1797C269.152 23.6953 268.137 21.3385 268.137 18.1094C268.137 16.1562 268.579 14.3984 269.465 12.8359C270.923 10.2839 273.085 9.00781 275.949 9.00781C278.111 9.00781 279.829 9.71094 281.105 11.1172V1.58594H277.395V0.609375H284.035L284.113 25.0234H286.066C286.223 25.0234 286.353 25.0365 286.457 25.0625C286.848 25.1146 287.043 25.4271 287.043 26H281.457ZM271.457 17.6406C271.457 18.8646 271.587 19.9583 271.848 20.9219C272.499 23.526 273.892 24.8281 276.027 24.8281C277.095 24.8281 278.046 24.4505 278.879 23.6953C280.441 22.2891 281.223 20.0234 281.223 16.8984C281.223 15.4141 281.001 14.125 280.559 13.0312C279.751 11 278.397 9.98438 276.496 9.98438C275.741 9.98438 275.051 10.1536 274.426 10.4922C272.447 11.5859 271.457 13.9688 271.457 17.6406ZM295.707 9.98438C295.03 9.98438 294.392 10.1406 293.793 10.4531C291.97 11.3646 290.993 13.3177 290.863 16.3125L295.004 16.4297C296.202 16.4557 297.126 16.4036 297.777 16.2734C299.027 15.987 299.652 15.1927 299.652 13.8906C299.652 13.3177 299.548 12.7839 299.34 12.2891C298.741 10.7526 297.53 9.98438 295.707 9.98438ZM302.504 22.25C302.348 22.6146 302.165 22.9792 301.957 23.3438C300.629 25.375 298.559 26.3906 295.746 26.3906C293.975 26.3906 292.4 25.9349 291.02 25.0234C288.702 23.4609 287.543 21.0651 287.543 17.8359C287.543 16.0651 287.908 14.4766 288.637 13.0703C290.043 10.362 292.374 9.00781 295.629 9.00781C297.296 9.00781 298.767 9.38542 300.043 10.1406C301.84 11.1823 302.738 12.5885 302.738 14.3594C302.738 15.3229 302.387 16.0651 301.684 16.5859C300.772 17.237 298.728 17.5365 295.551 17.4844L290.863 17.4062C290.889 18.5 291.007 19.5026 291.215 20.4141C291.918 23.6693 293.637 25.2969 296.371 25.2969C296.605 25.2969 296.853 25.2839 297.113 25.2578C299.145 24.9974 300.616 23.8776 301.527 21.8984L302.504 22.25ZM324.402 6.07812L315.73 15.4531C316.668 15.2448 317.553 15.1406 318.387 15.1406C320.132 15.1406 321.616 15.6484 322.84 16.6641C324.324 17.9141 325.066 19.5677 325.066 21.625C325.066 23.1875 324.572 24.6198 323.582 25.9219C321.967 28.0573 319.611 29.125 316.512 29.125C314.897 29.125 313.465 28.8385 312.215 28.2656C310.262 27.3281 309.285 25.987 309.285 24.2422C309.285 24.0599 309.311 23.8646 309.363 23.6562C309.572 22.7708 310.145 22.3281 311.082 22.3281C311.577 22.3281 311.98 22.4323 312.293 22.6406C312.736 22.9792 313.035 23.7734 313.191 25.0234C313.243 25.5703 313.309 25.974 313.387 26.2344C313.699 27.5104 314.559 28.1484 315.965 28.1484C316.225 28.1484 316.486 28.1354 316.746 28.1094C320.105 27.849 321.785 25.8698 321.785 22.1719C321.785 20.974 321.564 19.9062 321.121 18.9688C320.314 17.1979 318.999 16.3125 317.176 16.3125C316.264 16.3125 315.34 16.5078 314.402 16.8984L313.543 16.1953L320.613 8.03125L313.621 7.99219C313.413 8.01823 313.217 8.04427 313.035 8.07031C312.228 8.20052 311.681 8.69531 311.395 9.55469L310.691 11.7422H309.793L309.871 5.29688H324.402V6.07812ZM326.738 2.5625H337.637C340.293 2.5625 342.624 3.1875 344.629 4.4375C347.91 6.52083 349.551 9.80208 349.551 14.2812C349.551 17.7448 348.431 20.5573 346.191 22.7188C343.926 24.9062 341.035 26 337.52 26H326.738V24.9844H329.863V3.57812H326.738V2.5625ZM337.52 3.57812H333.223V24.9844H337.637C338.158 24.9844 338.665 24.9453 339.16 24.8672C343.587 24.1901 345.801 20.6094 345.801 14.125C345.801 12.224 345.605 10.5833 345.215 9.20312C344.199 5.45312 341.634 3.57812 337.52 3.57812ZM365.121 25.0234C365.277 25.0234 365.408 25.0365 365.512 25.0625C365.902 25.1146 366.098 25.4271 366.098 26H356.527V25.0234C357.413 25.0234 358.051 24.9583 358.441 24.8281C359.118 24.5938 359.457 23.8776 359.457 22.6797V10.375H356.723V9.39844H359.457V8.77344C359.457 6.63802 359.861 4.86719 360.668 3.46094C361.866 1.42969 363.689 0.414062 366.137 0.414062C367.074 0.414062 367.921 0.557292 368.676 0.84375C369.978 1.39062 370.629 2.14583 370.629 3.10938C370.629 3.21354 370.616 3.33073 370.59 3.46094C370.434 4.1901 369.926 4.55469 369.066 4.55469C368.806 4.55469 368.572 4.47656 368.363 4.32031C368.155 4.16406 367.816 3.66927 367.348 2.83594C366.801 1.8724 366.124 1.39062 365.316 1.39062C364.978 1.39062 364.665 1.45573 364.379 1.58594C363.051 2.1849 362.387 4.71094 362.387 9.16406V9.39844H366.879V10.375H362.387V25.0234H365.121ZM385.309 25.0234C385.465 25.0234 385.595 25.0365 385.699 25.0625C386.09 25.1146 386.285 25.4271 386.285 26H380.777L380.504 22.0156C380.217 22.7448 379.84 23.4089 379.371 24.0078C378.121 25.5964 376.52 26.3906 374.566 26.3906C370.868 26.3646 369.007 24.125 368.98 19.6719V10.375H365.973V9.39844H371.91V20.2578C371.91 20.6745 371.936 21.0651 371.988 21.4297C372.327 23.6172 373.564 24.7109 375.699 24.7109C376.48 24.7109 377.236 24.4635 377.965 23.9688C379.605 22.875 380.426 21.1562 380.426 18.8125V10.375H377.223V9.39844H383.355V25.0234H385.309ZM395.262 25.0234C395.418 25.0234 395.548 25.0365 395.652 25.0625C396.043 25.1146 396.238 25.4271 396.238 26H386.59V25.0234C387.475 25.0234 388.113 24.9583 388.504 24.8281C389.181 24.5938 389.52 23.8776 389.52 22.6797V10.375H386.59V9.39844H392.254L392.41 13.2656C392.749 12.4844 393.204 11.7812 393.777 11.1562C395.001 9.82812 396.395 9.16406 397.957 9.16406C398.191 9.16406 398.439 9.1901 398.699 9.24219C399.897 9.5026 400.496 10.2188 400.496 11.3906C400.496 11.5469 400.47 11.7031 400.418 11.8594C400.21 12.6146 399.715 12.9922 398.934 12.9922C398.777 12.9922 398.621 12.9661 398.465 12.9141C398.1 12.8099 397.71 12.3932 397.293 11.6641C396.928 11.013 396.525 10.6875 396.082 10.6875C395.691 10.7135 395.21 11 394.637 11.5469C393.178 12.9792 392.449 14.8802 392.449 17.25V25.0234H395.262ZM407.48 25.0234C407.637 25.0234 407.767 25.0365 407.871 25.0625C408.262 25.1146 408.457 25.4271 408.457 26H399.863V25.0234C400.749 25.0234 401.387 24.9583 401.777 24.8281C402.454 24.5938 402.793 23.8776 402.793 22.6797V10.375H399.863V9.39844H405.527L405.684 13.3047C405.97 12.5755 406.348 11.9115 406.816 11.3125C408.066 9.77604 409.655 9.00781 411.582 9.00781C412.546 9.00781 413.444 9.25521 414.277 9.75C416.074 10.8698 416.973 12.7318 416.973 15.3359V25.0234H418.926C419.082 25.0234 419.212 25.0365 419.316 25.0625C419.707 25.1146 419.902 25.4271 419.902 26H411.113V25.0234C411.999 25.0234 412.637 24.9583 413.027 24.8281C413.704 24.5938 414.043 23.8776 414.043 22.6797V14.9453C414.043 14.1901 413.926 13.513 413.691 12.9141C413.118 11.4297 412.038 10.6875 410.449 10.6875C409.72 10.6875 409.004 10.9089 408.301 11.3516C406.66 12.4193 405.801 14.1641 405.723 16.5859V25.0234H407.48ZM428.059 25.0234C428.189 25.0234 428.319 25.0365 428.449 25.0625C428.84 25.1146 429.035 25.4271 429.035 26H420.051V25.0234C420.936 25.0234 421.574 24.9714 421.965 24.8672C422.772 24.6068 423.176 23.8776 423.176 22.6797V10.375H420.051V9.39844H426.105V25.0234H428.059ZM426.574 3.69531C426.574 4.00781 426.509 4.30729 426.379 4.59375C426.014 5.42708 425.376 5.84375 424.465 5.84375C424.178 5.84375 423.892 5.79167 423.605 5.6875C422.746 5.32292 422.316 4.65885 422.316 3.69531C422.316 3.38281 422.382 3.08333 422.512 2.79688C422.902 1.96354 423.553 1.54688 424.465 1.54688C424.751 1.54688 425.051 1.61198 425.363 1.74219C426.171 2.13281 426.574 2.78385 426.574 3.69531ZM428.988 10.375V9.39844H431.723V5.6875L434.652 4.86719V9.39844H440.707V10.375H434.652V22.25C434.678 24.2031 435.395 25.2057 436.801 25.2578C438.051 25.0755 439.001 23.9036 439.652 21.7422L440.707 21.9375C440.707 21.9635 440.707 21.9896 440.707 22.0156C440.108 24.9583 438.611 26.4297 436.215 26.4297C433.402 26.3255 431.905 24.6458 431.723 21.3906V10.375H428.988ZM459.02 25.0234C459.176 25.0234 459.306 25.0365 459.41 25.0625C459.801 25.1146 459.996 25.4271 459.996 26H454.488L454.215 22.0156C453.928 22.7448 453.551 23.4089 453.082 24.0078C451.832 25.5964 450.23 26.3906 448.277 26.3906C444.579 26.3646 442.717 24.125 442.691 19.6719V10.375H439.684V9.39844H445.621V20.2578C445.621 20.6745 445.647 21.0651 445.699 21.4297C446.038 23.6172 447.275 24.7109 449.41 24.7109C450.191 24.7109 450.947 24.4635 451.676 23.9688C453.316 22.875 454.137 21.1562 454.137 18.8125V10.375H450.934V9.39844H457.066V25.0234H459.02ZM468.973 25.0234C469.129 25.0234 469.259 25.0365 469.363 25.0625C469.754 25.1146 469.949 25.4271 469.949 26H460.301V25.0234C461.186 25.0234 461.824 24.9583 462.215 24.8281C462.892 24.5938 463.23 23.8776 463.23 22.6797V10.375H460.301V9.39844H465.965L466.121 13.2656C466.46 12.4844 466.915 11.7812 467.488 11.1562C468.712 9.82812 470.105 9.16406 471.668 9.16406C471.902 9.16406 472.15 9.1901 472.41 9.24219C473.608 9.5026 474.207 10.2188 474.207 11.3906C474.207 11.5469 474.181 11.7031 474.129 11.8594C473.921 12.6146 473.426 12.9922 472.645 12.9922C472.488 12.9922 472.332 12.9661 472.176 12.9141C471.811 12.8099 471.421 12.3932 471.004 11.6641C470.639 11.013 470.236 10.6875 469.793 10.6875C469.402 10.7135 468.921 11 468.348 11.5469C466.889 12.9792 466.16 14.8802 466.16 17.25V25.0234H468.973ZM482.129 9.98438C481.452 9.98438 480.814 10.1406 480.215 10.4531C478.392 11.3646 477.415 13.3177 477.285 16.3125L481.426 16.4297C482.624 16.4557 483.548 16.4036 484.199 16.2734C485.449 15.987 486.074 15.1927 486.074 13.8906C486.074 13.3177 485.97 12.7839 485.762 12.2891C485.163 10.7526 483.952 9.98438 482.129 9.98438ZM488.926 22.25C488.77 22.6146 488.587 22.9792 488.379 23.3438C487.051 25.375 484.98 26.3906 482.168 26.3906C480.397 26.3906 478.822 25.9349 477.441 25.0234C475.124 23.4609 473.965 21.0651 473.965 17.8359C473.965 16.0651 474.329 14.4766 475.059 13.0703C476.465 10.362 478.796 9.00781 482.051 9.00781C483.717 9.00781 485.189 9.38542 486.465 10.1406C488.262 11.1823 489.16 12.5885 489.16 14.3594C489.16 15.3229 488.809 16.0651 488.105 16.5859C487.194 17.237 485.15 17.5365 481.973 17.4844L477.285 17.4062C477.311 18.5 477.428 19.5026 477.637 20.4141C478.34 23.6693 480.059 25.2969 482.793 25.2969C483.027 25.2969 483.275 25.2839 483.535 25.2578C485.566 24.9974 487.038 23.8776 487.949 21.8984L488.926 22.25Z" fill="white"/>
</svg>
