<svg width="986" height="327" viewBox="0 0 986 327" fill="none" xmlns="http://www.w3.org/2000/svg">
<path d="M200.914 3.024H150.566C150.566 3.024 150.566 4.23237 150.566 4.63516C153.587 6.44771 154.997 9.46862 154.997 16.5174V130.708C154.997 137.757 153.587 140.778 150.566 142.59C150.566 142.993 150.566 144 150.566 144H200.914C247.638 144 281.674 113.388 281.674 73.512C281.674 33.8373 247.638 3.024 200.914 3.024ZM200.914 142.59H170.907V4.63516H200.914C241.193 4.63516 265.763 36.4555 265.763 73.512C265.763 110.77 241.193 142.59 200.914 142.59ZM380.7 118.826C371.234 131.111 354.519 142.59 332.365 142.59H316.052V65.6576L366.804 69.8869V59.6158L316.052 64.0465V4.63516H330.15C352.505 4.63516 364.991 15.7118 374.255 26.1843L375.262 25.3788L371.033 3.024H295.711C295.711 3.024 295.711 4.23237 295.711 4.63516C298.732 6.44771 300.142 9.46862 300.142 16.5174V130.708C300.142 137.757 298.732 140.778 295.711 142.59C295.711 142.993 295.711 144 295.711 144H377.477L381.908 119.631L380.7 118.826ZM454.017 1.01006C421.592 1.01006 408.502 21.3509 408.502 37.6638C408.502 88.2138 495.101 74.519 489.865 117.416C488.254 130.104 473.955 141.18 456.836 141.18C430.454 141.18 411.724 122.854 401.453 102.311H400.043L394.001 125.27C409.71 137.153 424.613 145.208 448.579 145.208C477.177 145.208 498.726 128.291 498.726 104.325C498.726 53.9768 412.328 67.2688 416.155 26.9899C417.363 14.9063 428.842 3.62819 448.78 3.62819C464.691 3.62819 479.392 13.8993 490.872 40.8861H492.282L498.323 19.9411C486.441 10.677 469.524 1.01006 454.017 1.01006ZM537.812 4.63516C537.812 4.23237 537.812 3.024 537.812 3.024H512.84C512.84 3.024 512.84 4.23237 512.84 4.63516C515.86 6.44771 517.27 9.46862 517.27 16.5174V130.708C517.27 137.757 515.86 140.778 512.84 142.59C512.84 142.993 512.84 144 512.84 144H537.812C537.812 144 537.812 142.993 537.812 142.59C534.59 140.778 533.18 137.757 533.18 130.708V16.5174C533.18 9.46862 534.59 6.44771 537.812 4.63516ZM656.656 76.9357C656.656 76.9357 656.656 77.3385 656.656 78.5469C666.524 79.151 672.163 86.804 672.163 99.0891V125.875C665.517 133.125 656.454 138.764 644.37 140.375C608.522 145.007 582.14 125.069 571.264 89.6235C560.389 53.9768 572.876 13.2951 607.314 5.84352C633.697 0.204481 657.662 17.5244 672.364 40.8861H673.774L679.816 17.9272C662.697 6.6491 649.607 1.01006 627.856 1.01006C587.98 1.01006 551.931 33.2331 551.931 73.1092C551.931 112.985 584.154 145.208 623.828 145.208C663.302 145.208 682.635 123.861 688.073 112.18V90.4291C688.073 83.1789 689.483 80.3594 692.504 78.5469C692.504 78.1441 692.504 76.9357 692.504 76.9357H656.656ZM806.432 3.024C806.432 3.024 806.432 4.23237 806.432 4.63516C813.078 8.05886 819.119 18.5314 819.119 27.1913V118.624L727.888 3.024H707.547L720.436 19.5383V119.833C720.436 128.493 714.394 139.167 707.547 142.59C707.547 142.993 707.547 144 707.547 144H734.735C734.735 144 734.735 142.993 734.735 142.59C727.888 139.167 721.846 128.493 721.846 119.833V21.3509L817.71 144H820.731V27.1913C820.731 18.5314 826.772 8.05886 833.418 4.63516C833.418 4.23237 833.418 3.024 833.418 3.024H806.432ZM76.0359 184.024H0.110235C0.110235 184.024 0.110235 185.232 0.110235 185.635C3.13115 187.448 4.54091 190.469 4.54091 197.517V311.708C4.54091 318.757 3.13115 321.778 0.110235 323.59C0.110235 323.993 0.110235 325 0.110235 325H24.8817C24.8817 325 24.8817 323.993 24.8817 323.59C21.8608 321.778 20.4511 318.757 20.4511 311.708V253.102L66.7717 257.533V247.262L20.4511 251.491V185.635H37.3682C59.7229 185.635 72.4108 198.927 81.4735 209.198L82.4805 208.594L76.0359 184.024ZM186.148 184.024C186.148 184.024 186.148 185.232 186.148 185.635C196.017 187.045 201.253 199.33 201.253 210.407V277.672C201.253 300.229 186.148 321.778 161.377 323.792C132.175 326.208 115.056 306.069 115.056 272.839V197.517C115.056 190.267 116.466 187.448 119.487 185.635C119.487 185.232 119.487 184.024 119.487 184.024H94.5138C94.5138 184.024 94.5138 185.232 94.5138 185.635C97.7361 187.448 99.1459 190.267 99.1459 197.517V272.839C99.1459 309.493 124.32 326.208 154.328 326.208C182.724 326.208 202.663 305.666 202.663 277.672V208.191C202.663 199.531 204.676 189.059 211.121 185.635C211.121 185.232 211.121 184.024 211.121 184.024H186.148ZM308.632 288.95L290.507 257.13C310.646 252.498 325.751 241.019 325.751 222.088C325.751 195.705 297.555 184.024 266.339 184.024H227.269C227.269 184.024 227.269 185.232 227.269 185.635C230.29 187.448 231.699 190.267 231.699 197.517V311.708C231.699 318.757 230.29 321.778 227.269 323.59C227.269 323.993 227.269 325 227.269 325H252.04C252.04 325 252.04 323.993 252.04 323.59C249.019 321.778 247.61 318.757 247.61 311.708V259.95H266.339C269.36 259.95 272.381 259.748 275.402 259.547L296.951 297.208C304.806 311.104 309.035 318.354 303.799 323.59V325H334.813V323.59C326.959 316.541 320.514 309.694 308.632 288.95ZM266.339 258.338H247.61V185.635H266.339C304.604 185.635 309.84 206.379 309.84 222.088C309.84 237.595 304.403 258.338 266.339 258.338ZM441.798 184.024C441.798 184.024 441.798 185.232 441.798 185.635C448.444 189.059 454.486 199.531 454.486 208.191V299.624L363.254 184.024H342.913L355.802 200.538V300.833C355.802 309.493 349.761 320.167 342.913 323.59C342.913 323.993 342.913 325 342.913 325H370.101C370.101 325 370.101 323.993 370.101 323.59C363.254 320.167 357.212 309.493 357.212 300.833V202.351L453.076 325H456.097V208.191C456.097 199.531 462.139 189.059 468.785 185.635C468.785 185.232 468.785 184.024 468.785 184.024H441.798ZM509.885 185.635C509.885 185.232 509.885 184.024 509.885 184.024H484.912C484.912 184.024 484.912 185.232 484.912 185.635C487.933 187.448 489.343 190.469 489.343 197.517V311.708C489.343 318.757 487.933 321.778 484.912 323.59C484.912 323.993 484.912 325 484.912 325H509.885C509.885 325 509.885 323.993 509.885 323.59C506.662 321.778 505.253 318.757 505.253 311.708V197.517C505.253 190.469 506.662 187.448 509.885 185.635ZM630.742 184.024H528.434L521.989 208.594L523.197 209.198C532.26 198.927 544.948 185.635 567.303 185.635H571.733V311.708C571.733 318.757 570.122 321.778 567.101 323.59C567.101 323.993 567.101 325 567.101 325H592.074C592.074 325 592.074 323.993 592.074 323.59C589.053 321.778 587.442 318.757 587.442 311.708V185.635H591.873C614.227 185.635 626.915 198.927 635.978 209.198L637.186 208.594L630.742 184.024ZM740.966 184.024C740.966 184.024 740.966 185.232 740.966 185.635C750.834 187.045 756.07 199.33 756.07 210.407V277.672C756.07 300.229 740.966 321.778 716.194 323.792C686.992 326.208 669.874 306.069 669.874 272.839V197.517C669.874 190.267 671.283 187.448 674.304 185.635C674.304 185.232 674.304 184.024 674.304 184.024H649.331C649.331 184.024 649.331 185.232 649.331 185.635C652.554 187.448 653.963 190.267 653.963 197.517V272.839C653.963 309.493 679.138 326.208 709.146 326.208C737.542 326.208 757.48 305.666 757.48 277.672V208.191C757.48 199.531 759.494 189.059 765.939 185.635C765.939 185.232 765.939 184.024 765.939 184.024H740.966ZM863.45 288.95L845.324 257.13C865.464 252.498 880.568 241.019 880.568 222.088C880.568 195.705 852.373 184.024 821.157 184.024H782.086C782.086 184.024 782.086 185.232 782.086 185.635C785.107 187.448 786.517 190.267 786.517 197.517V311.708C786.517 318.757 785.107 321.778 782.086 323.59C782.086 323.993 782.086 325 782.086 325H806.858C806.858 325 806.858 323.993 806.858 323.59C803.837 321.778 802.427 318.757 802.427 311.708V259.95H821.157C824.178 259.95 827.199 259.748 830.22 259.547L851.769 297.208C859.623 311.104 863.852 318.354 858.616 323.59V325H889.631V323.59C881.777 316.541 875.332 309.694 863.45 288.95ZM821.157 258.338H802.427V185.635H821.157C859.422 185.635 864.658 206.379 864.658 222.088C864.658 237.595 859.22 258.338 821.157 258.338ZM984.686 299.826C975.22 312.111 958.505 323.59 936.351 323.59H920.038V246.658L970.79 250.887V240.616L920.038 245.046V185.635H934.136C956.491 185.635 968.977 196.712 978.241 207.184L979.248 206.379L975.019 184.024H899.698C899.698 184.024 899.698 185.232 899.698 185.635C902.718 187.448 904.128 190.469 904.128 197.517V311.708C904.128 318.757 902.718 321.778 899.698 323.59C899.698 323.993 899.698 325 899.698 325H981.464L985.894 300.631L984.686 299.826Z" fill="white"/>
</svg>
