<svg width="773" height="34" viewBox="0 0 773 34" fill="none" xmlns="http://www.w3.org/2000/svg">
<path d="M19.2305 9.67188H18.3711L17.7461 7.67969C17.7461 7.6276 17.7331 7.57552 17.707 7.52344C16.8997 4.89323 15.4935 3.57812 13.4883 3.57812H7.58984V13.3438H15.5586V14.4766H7.58984V24.9844H13.4883C13.8789 24.9844 14.2565 24.9323 14.6211 24.8281C16.0273 24.4375 17.069 23.1224 17.7461 20.8828L18.3711 18.8906H19.2305L19.0352 26H0.714844V24.9844H3.83984V3.57812H0.714844V2.5625H19.0352L19.2305 9.67188ZM19.2227 26C19.2227 25.8177 19.2357 25.6484 19.2617 25.4922C19.3138 25.2318 19.5352 25.0755 19.9258 25.0234C20.681 24.9193 21.332 24.5286 21.8789 23.8516L26.3711 18.0312L21.0977 10.3359H19.2227V9.35938H27.2695V10.3359H24.7695L28.6758 16.1172L32.8555 10.3359H30.1602V9.35938H36.0195C36.0195 9.56771 36.0065 9.73698 35.9805 9.86719C35.9023 10.1276 35.6549 10.2708 35.2383 10.2969C34.431 10.401 33.7799 10.8047 33.2852 11.5078L29.3008 17.0156L34.7305 25.0234H35.5117C35.6419 25.0234 35.7721 25.0365 35.9023 25.0625C36.293 25.1146 36.4883 25.4271 36.4883 26H28.8711V25.0234H31.1758L26.9961 18.9297L22.3477 25.0234H25.2383V26H19.2227ZM41.5977 32.4453H44.1758C44.332 32.4453 44.4622 32.4583 44.5664 32.4844C44.957 32.5365 45.1523 32.849 45.1523 33.4219H35.4648V32.4453C36.2461 32.4453 36.832 32.3802 37.2227 32.25C37.8997 32.0156 38.2383 31.3125 38.2383 30.1406V10.3359H35.4648V9.35938H41.3242L41.5195 13.5C41.7539 12.8229 42.0794 12.1979 42.4961 11.625C43.7721 9.82812 45.582 8.92969 47.9258 8.92969C49.5143 8.92969 50.8815 9.4375 52.0273 10.4531C53.7201 11.9896 54.5664 14.2552 54.5664 17.25C54.5664 19.8542 53.8372 22.0026 52.3789 23.6953C50.8164 25.4922 48.8503 26.3906 46.4805 26.3906C44.5794 26.2865 42.9518 25.6224 41.5977 24.3984V32.4453ZM46.5195 10.5703C45.6341 10.5703 44.8138 10.8568 44.0586 11.4297C42.3919 12.7318 41.5586 15.0625 41.5586 18.4219C41.5586 19.9062 41.7409 21.1823 42.1055 22.25C42.8607 24.3594 44.1888 25.4141 46.0898 25.4141C46.6888 25.4141 47.2487 25.2969 47.7695 25.0625C49.8268 24.125 50.8555 21.6641 50.8555 17.6797C50.8555 16.8724 50.8034 16.1042 50.6992 15.375C50.2305 12.1719 48.8372 10.5703 46.5195 10.5703ZM63.582 25.0234C63.7122 25.0234 63.8424 25.0365 63.9727 25.0625C64.3372 25.1146 64.5195 25.4271 64.5195 26H55.1836V25.0234C56.043 25.0234 56.681 24.9583 57.0977 24.8281C57.8008 24.5938 58.1523 23.8906 58.1523 22.7188V1.58594H55.1836V0.609375H61.4727V25.0234H63.582ZM68.7305 17.6406C68.7565 22.7708 70.3971 25.362 73.6523 25.4141C76.8034 25.388 78.3919 22.7448 78.418 17.4844C78.3919 12.4844 76.7773 9.95833 73.5742 9.90625C70.3711 9.93229 68.7565 12.5104 68.7305 17.6406ZM73.6914 8.92969C75.5404 8.92969 77.194 9.42448 78.6523 10.4141C80.9961 12.0286 82.168 14.4245 82.168 17.6016C82.168 19.9974 81.4128 22.0156 79.9023 23.6562C78.2357 25.4792 76.1133 26.3906 73.5352 26.3906C71.6602 26.3906 69.9674 25.8438 68.457 24.75C66.1654 23.0833 65.0195 20.6615 65.0195 17.4844C65.0195 15.1667 65.7487 13.2135 67.207 11.625C68.8997 9.82812 71.0612 8.92969 73.6914 8.92969ZM91.7695 25.0234C91.9258 25.0234 92.056 25.0365 92.1602 25.0625C92.5508 25.1146 92.7461 25.4271 92.7461 26H82.8242V25.0234C83.6055 25.0234 84.1784 24.9714 84.543 24.8672C85.2461 24.6328 85.5977 23.9167 85.5977 22.7188V10.3359H82.8242V9.35938H88.7227L88.8789 13.1094C89.1914 12.3802 89.6081 11.7292 90.1289 11.1562C91.3789 9.80208 92.8112 9.125 94.4258 9.125C94.7122 9.125 94.9857 9.15104 95.2461 9.20312C96.444 9.46354 97.043 10.1927 97.043 11.3906C97.043 11.5729 97.0169 11.7682 96.9648 11.9766C96.7044 12.7839 96.1445 13.1875 95.2852 13.1875C95.1029 13.1875 94.9206 13.1615 94.7383 13.1094C94.3216 12.9792 93.9049 12.5495 93.4883 11.8203C93.1237 11.1693 92.7461 10.8438 92.3555 10.8438C92.043 10.8438 91.6654 11.026 91.2227 11.3906C89.8945 12.5104 89.1393 14.1901 88.957 16.4297V25.0234H91.7695ZM105.004 9.90625C104.379 9.90625 103.793 10.0495 103.246 10.3359C101.475 11.2474 100.538 13.2396 100.434 16.3125L104.262 16.4297C105.408 16.4557 106.306 16.3906 106.957 16.2344C108.103 15.9479 108.676 15.1667 108.676 13.8906C108.676 13.3438 108.598 12.8229 108.441 12.3281C107.921 10.7135 106.775 9.90625 105.004 9.90625ZM111.918 22.2109C111.762 22.5495 111.592 22.888 111.41 23.2266C110.082 25.3359 107.96 26.3906 105.043 26.3906C103.298 26.3906 101.736 25.9609 100.355 25.1016C97.9336 23.5391 96.7227 21.0911 96.7227 17.7578C96.7227 15.8568 97.1393 14.1771 97.9727 12.7188C99.457 10.1927 101.775 8.92969 104.926 8.92969C106.592 8.92969 108.077 9.28125 109.379 9.98438C111.254 11.0521 112.191 12.5104 112.191 14.3594C112.191 15.2448 111.892 15.9479 111.293 16.4688C110.382 17.1979 108.259 17.5365 104.926 17.4844L100.434 17.4062C100.46 18.3698 100.538 19.2552 100.668 20.0625C101.293 23.5521 102.986 25.2969 105.746 25.2969C106.137 25.2969 106.54 25.2578 106.957 25.1797C108.78 24.7891 110.108 23.6823 110.941 21.8594L111.918 22.2109ZM122.254 17.6406C122.28 22.7708 123.921 25.362 127.176 25.4141C130.327 25.388 131.915 22.7448 131.941 17.4844C131.915 12.4844 130.301 9.95833 127.098 9.90625C123.895 9.93229 122.28 12.5104 122.254 17.6406ZM127.215 8.92969C129.064 8.92969 130.717 9.42448 132.176 10.4141C134.52 12.0286 135.691 14.4245 135.691 17.6016C135.691 19.9974 134.936 22.0156 133.426 23.6562C131.759 25.4792 129.637 26.3906 127.059 26.3906C125.184 26.3906 123.491 25.8438 121.98 24.75C119.689 23.0833 118.543 20.6615 118.543 17.4844C118.543 15.1667 119.272 13.2135 120.73 11.625C122.423 9.82812 124.585 8.92969 127.215 8.92969ZM155.332 25.0234C155.488 25.0234 155.632 25.0365 155.762 25.0625C156.1 25.1406 156.27 25.4531 156.27 26H150.488L150.215 22.1719C149.954 22.8229 149.616 23.4219 149.199 23.9688C147.949 25.5833 146.335 26.3906 144.355 26.3906C140.658 26.3646 138.796 24.151 138.77 19.75V10.3359H135.918V9.35938H142.129V20.3359C142.129 20.6745 142.155 21.013 142.207 21.3516C142.493 23.5391 143.652 24.6328 145.684 24.6328C146.387 24.6328 147.064 24.4245 147.715 24.0078C149.303 22.9922 150.111 21.3385 150.137 19.0469V10.3359H147.207V9.35938H153.496V25.0234H155.332ZM165.402 25.0234C165.559 25.0234 165.689 25.0365 165.793 25.0625C166.184 25.1146 166.379 25.4271 166.379 26H156.457V25.0234C157.238 25.0234 157.811 24.9714 158.176 24.8672C158.879 24.6328 159.23 23.9167 159.23 22.7188V10.3359H156.457V9.35938H162.355L162.512 13.1094C162.824 12.3802 163.241 11.7292 163.762 11.1562C165.012 9.80208 166.444 9.125 168.059 9.125C168.345 9.125 168.618 9.15104 168.879 9.20312C170.077 9.46354 170.676 10.1927 170.676 11.3906C170.676 11.5729 170.65 11.7682 170.598 11.9766C170.337 12.7839 169.777 13.1875 168.918 13.1875C168.736 13.1875 168.553 13.1615 168.371 13.1094C167.954 12.9792 167.538 12.5495 167.121 11.8203C166.757 11.1693 166.379 10.8438 165.988 10.8438C165.676 10.8438 165.298 11.026 164.855 11.3906C163.527 12.5104 162.772 14.1901 162.59 16.4297V25.0234H165.402ZM189.332 26L188.98 21.9375C187.783 24.8542 185.751 26.3385 182.887 26.3906C181.48 26.3906 180.204 25.974 179.059 25.1406C177.001 23.6302 175.973 21.2734 175.973 18.0703C175.973 15.987 176.467 14.125 177.457 12.4844C178.941 10.1146 181.064 8.92969 183.824 8.92969C185.908 8.92969 187.6 9.59375 188.902 10.9219V1.58594H185.23V0.609375H192.262L192.301 25.0234H194.254C194.41 25.0234 194.553 25.0365 194.684 25.0625C195.022 25.1406 195.191 25.4531 195.191 26H189.332ZM179.684 17.6016C179.684 18.8516 179.814 19.9714 180.074 20.9609C180.725 23.513 182.053 24.7891 184.059 24.7891C185.022 24.7891 185.882 24.4766 186.637 23.8516C188.225 22.4714 189.02 20.1406 189.02 16.8594C189.02 15.401 188.824 14.125 188.434 13.0312C187.678 10.974 186.376 9.94531 184.527 9.94531C183.772 9.94531 183.095 10.1276 182.496 10.4922C180.621 11.5859 179.684 13.9557 179.684 17.6016ZM203.348 25.0234C203.504 25.0234 203.634 25.0365 203.738 25.0625C204.129 25.1146 204.324 25.4271 204.324 26H195.223V25.0234C196.004 25.0234 196.59 24.9714 196.98 24.8672C197.788 24.6328 198.191 23.9167 198.191 22.7188V10.3359H195.223V9.35938H201.512V25.0234H203.348ZM201.941 3.77344C201.941 4.11198 201.863 4.45052 201.707 4.78906C201.29 5.64844 200.613 6.07812 199.676 6.07812C199.337 6.07812 199.012 6.01302 198.699 5.88281C197.814 5.46615 197.371 4.76302 197.371 3.77344C197.371 3.4349 197.449 3.09635 197.605 2.75781C198.022 1.89844 198.712 1.46875 199.676 1.46875C200.014 1.46875 200.353 1.54688 200.691 1.70312C201.525 2.14583 201.941 2.83594 201.941 3.77344ZM211.387 10.3359H208.691L213.535 23.3828L218.418 10.3359H215.449V9.35938H221.504C221.504 9.59375 221.491 9.77604 221.465 9.90625C221.387 10.1927 221.087 10.3359 220.566 10.3359C220.436 10.3359 220.306 10.349 220.176 10.375C219.759 10.4792 219.395 10.9089 219.082 11.6641L213.574 26.1953H212.871C212.402 26.1953 212.012 26.1302 211.699 26C211.126 25.7656 210.566 24.9062 210.02 23.4219L205.254 10.3359H203.535V9.35938H211.387V10.3359ZM229.387 9.90625C228.762 9.90625 228.176 10.0495 227.629 10.3359C225.858 11.2474 224.921 13.2396 224.816 16.3125L228.645 16.4297C229.79 16.4557 230.689 16.3906 231.34 16.2344C232.486 15.9479 233.059 15.1667 233.059 13.8906C233.059 13.3438 232.98 12.8229 232.824 12.3281C232.303 10.7135 231.158 9.90625 229.387 9.90625ZM236.301 22.2109C236.145 22.5495 235.975 22.888 235.793 23.2266C234.465 25.3359 232.342 26.3906 229.426 26.3906C227.681 26.3906 226.118 25.9609 224.738 25.1016C222.316 23.5391 221.105 21.0911 221.105 17.7578C221.105 15.8568 221.522 14.1771 222.355 12.7188C223.84 10.1927 226.158 8.92969 229.309 8.92969C230.975 8.92969 232.46 9.28125 233.762 9.98438C235.637 11.0521 236.574 12.5104 236.574 14.3594C236.574 15.2448 236.275 15.9479 235.676 16.4688C234.764 17.1979 232.642 17.5365 229.309 17.4844L224.816 17.4062C224.842 18.3698 224.921 19.2552 225.051 20.0625C225.676 23.5521 227.368 25.2969 230.129 25.2969C230.52 25.2969 230.923 25.2578 231.34 25.1797C233.163 24.7891 234.491 23.6823 235.324 21.8594L236.301 22.2109ZM245.941 25.0234C246.098 25.0234 246.228 25.0365 246.332 25.0625C246.723 25.1146 246.918 25.4271 246.918 26H236.996V25.0234C237.777 25.0234 238.35 24.9714 238.715 24.8672C239.418 24.6328 239.77 23.9167 239.77 22.7188V10.3359H236.996V9.35938H242.895L243.051 13.1094C243.363 12.3802 243.78 11.7292 244.301 11.1562C245.551 9.80208 246.983 9.125 248.598 9.125C248.884 9.125 249.158 9.15104 249.418 9.20312C250.616 9.46354 251.215 10.1927 251.215 11.3906C251.215 11.5729 251.189 11.7682 251.137 11.9766C250.876 12.7839 250.316 13.1875 249.457 13.1875C249.275 13.1875 249.092 13.1615 248.91 13.1094C248.493 12.9792 248.077 12.5495 247.66 11.8203C247.296 11.1693 246.918 10.8438 246.527 10.8438C246.215 10.8438 245.837 11.026 245.395 11.3906C244.066 12.5104 243.311 14.1901 243.129 16.4297V25.0234H245.941ZM256.871 25.3359C258.668 25.3359 259.84 24.776 260.387 23.6562C260.569 23.2917 260.66 22.9141 260.66 22.5234C260.66 21.3776 259.853 20.401 258.238 19.5938C257.9 19.4115 257.34 19.151 256.559 18.8125C254.475 17.9271 253.082 17.0938 252.379 16.3125C251.65 15.4792 251.285 14.5026 251.285 13.3828C251.285 11.5339 252.301 10.2188 254.332 9.4375C255.296 9.09896 256.337 8.92969 257.457 8.92969C259.228 8.92969 260.725 9.29427 261.949 10.0234C261.949 9.26823 262.132 8.83854 262.496 8.73438C262.626 8.70833 262.796 8.69531 263.004 8.69531V13.5781H261.949C261.897 11.1823 260.569 9.97135 257.965 9.94531C256.09 9.94531 254.918 10.5182 254.449 11.6641C254.345 11.9766 254.293 12.2891 254.293 12.6016C254.293 13.7214 255.087 14.6719 256.676 15.4531C257.04 15.6354 257.6 15.8828 258.355 16.1953C260.465 17.0547 261.871 17.862 262.574 18.6172C263.329 19.4766 263.707 20.4922 263.707 21.6641C263.707 23.8255 262.574 25.2578 260.309 25.9609C259.423 26.2474 258.46 26.3906 257.418 26.3906C255.465 26.3646 253.772 25.9089 252.34 25.0234C252.34 25.7005 252.171 26.0911 251.832 26.1953C251.676 26.2214 251.493 26.2344 251.285 26.2344V20.2969H252.418C252.47 23.6302 253.954 25.3099 256.871 25.3359ZM272.957 9.90625C272.332 9.90625 271.746 10.0495 271.199 10.3359C269.428 11.2474 268.491 13.2396 268.387 16.3125L272.215 16.4297C273.361 16.4557 274.259 16.3906 274.91 16.2344C276.056 15.9479 276.629 15.1667 276.629 13.8906C276.629 13.3438 276.551 12.8229 276.395 12.3281C275.874 10.7135 274.728 9.90625 272.957 9.90625ZM279.871 22.2109C279.715 22.5495 279.546 22.888 279.363 23.2266C278.035 25.3359 275.913 26.3906 272.996 26.3906C271.251 26.3906 269.689 25.9609 268.309 25.1016C265.887 23.5391 264.676 21.0911 264.676 17.7578C264.676 15.8568 265.092 14.1771 265.926 12.7188C267.41 10.1927 269.728 8.92969 272.879 8.92969C274.546 8.92969 276.03 9.28125 277.332 9.98438C279.207 11.0521 280.145 12.5104 280.145 14.3594C280.145 15.2448 279.845 15.9479 279.246 16.4688C278.335 17.1979 276.212 17.5365 272.879 17.4844L268.387 17.4062C268.413 18.3698 268.491 19.2552 268.621 20.0625C269.246 23.5521 270.939 25.2969 273.699 25.2969C274.09 25.2969 274.493 25.2578 274.91 25.1797C276.733 24.7891 278.061 23.6823 278.895 21.8594L279.871 22.2109ZM286.496 17.7969C286.496 15.8958 286.926 14.2031 287.785 12.7188C289.27 10.1927 291.652 8.92969 294.934 8.92969C296.444 8.92969 297.824 9.25521 299.074 9.90625C300.689 10.7656 301.496 11.8333 301.496 13.1094C301.496 13.2656 301.47 13.4349 301.418 13.6172C301.184 14.4505 300.572 14.8542 299.582 14.8281C299.191 14.8021 298.866 14.7109 298.605 14.5547C298.163 14.2943 297.863 13.6172 297.707 12.5234C297.655 12.0807 297.603 11.7682 297.551 11.5859C297.264 10.4661 296.444 9.90625 295.09 9.90625C294.517 9.90625 293.97 10.0104 293.449 10.2188C291.288 11.0781 290.207 13.526 290.207 17.5625C290.207 19.4375 290.52 21.026 291.145 22.3281C292.108 24.3073 293.553 25.2969 295.48 25.2969C295.819 25.2969 296.158 25.2708 296.496 25.2188C298.553 24.8802 300.038 23.7604 300.949 21.8594L301.965 22.1719C301.757 22.6667 301.483 23.1354 301.145 23.5781C299.764 25.4531 297.707 26.3906 294.973 26.3906C293.15 26.3906 291.535 25.9479 290.129 25.0625C287.707 23.526 286.496 21.1042 286.496 17.7969ZM305.355 17.6406C305.382 22.7708 307.022 25.362 310.277 25.4141C313.428 25.388 315.017 22.7448 315.043 17.4844C315.017 12.4844 313.402 9.95833 310.199 9.90625C306.996 9.93229 305.382 12.5104 305.355 17.6406ZM310.316 8.92969C312.165 8.92969 313.819 9.42448 315.277 10.4141C317.621 12.0286 318.793 14.4245 318.793 17.6016C318.793 19.9974 318.038 22.0156 316.527 23.6562C314.861 25.4792 312.738 26.3906 310.16 26.3906C308.285 26.3906 306.592 25.8438 305.082 24.75C302.79 23.0833 301.645 20.6615 301.645 17.4844C301.645 15.1667 302.374 13.2135 303.832 11.625C305.525 9.82812 307.686 8.92969 310.316 8.92969ZM327.809 25.0234C327.939 25.0234 328.069 25.0365 328.199 25.0625C328.564 25.1146 328.746 25.4271 328.746 26H319.41V25.0234C320.27 25.0234 320.908 24.9583 321.324 24.8281C322.027 24.5938 322.379 23.8906 322.379 22.7188V1.58594H319.41V0.609375H325.699V25.0234H327.809ZM337.293 25.0234C337.423 25.0234 337.553 25.0365 337.684 25.0625C338.048 25.1146 338.23 25.4271 338.23 26H328.895V25.0234C329.754 25.0234 330.392 24.9583 330.809 24.8281C331.512 24.5938 331.863 23.8906 331.863 22.7188V1.58594H328.895V0.609375H335.184V25.0234H337.293ZM347.012 9.90625C346.387 9.90625 345.801 10.0495 345.254 10.3359C343.483 11.2474 342.546 13.2396 342.441 16.3125L346.27 16.4297C347.415 16.4557 348.314 16.3906 348.965 16.2344C350.111 15.9479 350.684 15.1667 350.684 13.8906C350.684 13.3438 350.605 12.8229 350.449 12.3281C349.928 10.7135 348.783 9.90625 347.012 9.90625ZM353.926 22.2109C353.77 22.5495 353.6 22.888 353.418 23.2266C352.09 25.3359 349.967 26.3906 347.051 26.3906C345.306 26.3906 343.743 25.9609 342.363 25.1016C339.941 23.5391 338.73 21.0911 338.73 17.7578C338.73 15.8568 339.147 14.1771 339.98 12.7188C341.465 10.1927 343.783 8.92969 346.934 8.92969C348.6 8.92969 350.085 9.28125 351.387 9.98438C353.262 11.0521 354.199 12.5104 354.199 14.3594C354.199 15.2448 353.9 15.9479 353.301 16.4688C352.389 17.1979 350.267 17.5365 346.934 17.4844L342.441 17.4062C342.467 18.3698 342.546 19.2552 342.676 20.0625C343.301 23.5521 344.993 25.2969 347.754 25.2969C348.145 25.2969 348.548 25.2578 348.965 25.1797C350.788 24.7891 352.116 23.6823 352.949 21.8594L353.926 22.2109ZM354.934 17.7969C354.934 15.8958 355.363 14.2031 356.223 12.7188C357.707 10.1927 360.09 8.92969 363.371 8.92969C364.882 8.92969 366.262 9.25521 367.512 9.90625C369.126 10.7656 369.934 11.8333 369.934 13.1094C369.934 13.2656 369.908 13.4349 369.855 13.6172C369.621 14.4505 369.009 14.8542 368.02 14.8281C367.629 14.8021 367.303 14.7109 367.043 14.5547C366.6 14.2943 366.301 13.6172 366.145 12.5234C366.092 12.0807 366.04 11.7682 365.988 11.5859C365.702 10.4661 364.882 9.90625 363.527 9.90625C362.954 9.90625 362.408 10.0104 361.887 10.2188C359.725 11.0781 358.645 13.526 358.645 17.5625C358.645 19.4375 358.957 21.026 359.582 22.3281C360.546 24.3073 361.991 25.2969 363.918 25.2969C364.257 25.2969 364.595 25.2708 364.934 25.2188C366.991 24.8802 368.475 23.7604 369.387 21.8594L370.402 22.1719C370.194 22.6667 369.921 23.1354 369.582 23.5781C368.202 25.4531 366.145 26.3906 363.41 26.3906C361.587 26.3906 359.973 25.9479 358.566 25.0625C356.145 23.526 354.934 21.1042 354.934 17.7969ZM369.34 10.375V9.39844H372.074V5.6875L375.395 4.86719V9.39844H381.293V10.375H375.395V22.25C375.421 24.2031 376.124 25.2057 377.504 25.2578C378.832 25.2318 379.77 24.0599 380.316 21.7422L381.371 21.9375C381.371 21.9635 381.371 21.9896 381.371 22.0156C380.772 24.9583 379.249 26.4297 376.801 26.4297C373.832 26.3255 372.257 24.5677 372.074 21.1562V10.375H369.34ZM388.824 25.0234C388.98 25.0234 389.111 25.0365 389.215 25.0625C389.605 25.1146 389.801 25.4271 389.801 26H380.699V25.0234C381.48 25.0234 382.066 24.9714 382.457 24.8672C383.264 24.6328 383.668 23.9167 383.668 22.7188V10.3359H380.699V9.35938H386.988V25.0234H388.824ZM387.418 3.77344C387.418 4.11198 387.34 4.45052 387.184 4.78906C386.767 5.64844 386.09 6.07812 385.152 6.07812C384.814 6.07812 384.488 6.01302 384.176 5.88281C383.29 5.46615 382.848 4.76302 382.848 3.77344C382.848 3.4349 382.926 3.09635 383.082 2.75781C383.499 1.89844 384.189 1.46875 385.152 1.46875C385.491 1.46875 385.829 1.54688 386.168 1.70312C387.001 2.14583 387.418 2.83594 387.418 3.77344ZM394.09 17.6406C394.116 22.7708 395.757 25.362 399.012 25.4141C402.163 25.388 403.751 22.7448 403.777 17.4844C403.751 12.4844 402.137 9.95833 398.934 9.90625C395.73 9.93229 394.116 12.5104 394.09 17.6406ZM399.051 8.92969C400.9 8.92969 402.553 9.42448 404.012 10.4141C406.355 12.0286 407.527 14.4245 407.527 17.6016C407.527 19.9974 406.772 22.0156 405.262 23.6562C403.595 25.4792 401.473 26.3906 398.895 26.3906C397.02 26.3906 395.327 25.8438 393.816 24.75C391.525 23.0833 390.379 20.6615 390.379 17.4844C390.379 15.1667 391.108 13.2135 392.566 11.625C394.259 9.82812 396.421 8.92969 399.051 8.92969ZM415.84 25.0234C415.996 25.0234 416.126 25.0365 416.23 25.0625C416.621 25.1146 416.816 25.4271 416.816 26H408.105V25.0234C408.861 25.0234 409.434 24.9714 409.824 24.8672C410.553 24.6328 410.918 23.9167 410.918 22.7188V10.3359H408.105V9.35938H414.043L414.199 13.0312C414.46 12.3802 414.811 11.7943 415.254 11.2734C416.53 9.71094 418.132 8.92969 420.059 8.92969C420.97 8.92969 421.829 9.15104 422.637 9.59375C424.512 10.6354 425.449 12.5234 425.449 15.2578V25.0234H427.285C427.441 25.0234 427.572 25.0365 427.676 25.0625C428.066 25.1146 428.262 25.4271 428.262 26H419.434V25.0234C420.189 25.0234 420.749 24.9583 421.113 24.8281C421.79 24.5938 422.129 23.8906 422.129 22.7188V14.8281C422.129 14.151 422.038 13.526 421.855 12.9531C421.335 11.4427 420.28 10.6875 418.691 10.6875C418.014 10.6875 417.337 10.8958 416.66 11.3125C415.098 12.3542 414.29 14.0599 414.238 16.4297V25.0234H415.84ZM437.973 17.6406C437.999 22.7708 439.639 25.362 442.895 25.4141C446.046 25.388 447.634 22.7448 447.66 17.4844C447.634 12.4844 446.02 9.95833 442.816 9.90625C439.613 9.93229 437.999 12.5104 437.973 17.6406ZM442.934 8.92969C444.783 8.92969 446.436 9.42448 447.895 10.4141C450.238 12.0286 451.41 14.4245 451.41 17.6016C451.41 19.9974 450.655 22.0156 449.145 23.6562C447.478 25.4792 445.355 26.3906 442.777 26.3906C440.902 26.3906 439.21 25.8438 437.699 24.75C435.408 23.0833 434.262 20.6615 434.262 17.4844C434.262 15.1667 434.991 13.2135 436.449 11.625C438.142 9.82812 440.303 8.92969 442.934 8.92969ZM461.09 25.0234C461.22 25.0234 461.35 25.0365 461.48 25.0625C461.845 25.1146 462.027 25.4271 462.027 26H452.066V25.0234C452.848 25.0234 453.434 24.9714 453.824 24.8672C454.605 24.6328 454.996 23.9167 454.996 22.7188V10.3359H452.184V9.35938H454.996V8.77344C454.996 6.63802 455.413 4.86719 456.246 3.46094C457.47 1.42969 459.358 0.414062 461.91 0.414062C462.926 0.414062 463.837 0.583333 464.645 0.921875C465.947 1.46875 466.598 2.25 466.598 3.26562C466.598 3.39583 466.585 3.52604 466.559 3.65625C466.376 4.41146 465.829 4.78906 464.918 4.78906C464.632 4.78906 464.358 4.69792 464.098 4.51562C463.889 4.33333 463.538 3.78646 463.043 2.875C462.522 1.88542 461.871 1.39062 461.09 1.39062C460.725 1.39062 460.4 1.46875 460.113 1.625C458.915 2.25 458.316 4.75 458.316 9.125V9.35938H462.809V10.3359H458.316V25.0234H461.09ZM483.73 6.03906L475.02 15.4531C475.957 15.2448 476.829 15.1406 477.637 15.1406C479.408 15.1406 480.905 15.6094 482.129 16.5469C483.691 17.7708 484.473 19.4375 484.473 21.5469C484.473 23.1094 483.978 24.5547 482.988 25.8828C481.322 28.0443 478.874 29.125 475.645 29.125C474.03 29.125 472.598 28.8516 471.348 28.3047C469.29 27.3932 468.262 26.026 468.262 24.2031C468.262 23.9948 468.288 23.7865 468.34 23.5781C468.574 22.6406 469.186 22.1719 470.176 22.1719C470.697 22.1719 471.126 22.2891 471.465 22.5234C471.908 22.862 472.194 23.6693 472.324 24.9453C472.402 25.5443 472.467 25.974 472.52 26.2344C472.832 27.5104 473.704 28.1484 475.137 28.1484C478.887 28.1224 480.788 26.1042 480.84 22.0938C480.84 20.974 480.658 19.9714 480.293 19.0859C479.512 17.263 478.21 16.3516 476.387 16.3516C475.501 16.3516 474.59 16.5469 473.652 16.9375L472.754 16.1953L479.746 8.10938H473.574C473.001 8.10938 472.572 8.1224 472.285 8.14844C471.4 8.27865 470.814 8.79948 470.527 9.71094L469.824 11.8203H468.887L468.965 5.21875H483.73V6.03906ZM485.871 2.5625H496.887C499.595 2.5625 501.965 3.20052 503.996 4.47656C507.277 6.5599 508.918 9.82812 508.918 14.2812C508.918 17.7188 507.811 20.5182 505.598 22.6797C503.306 24.8932 500.376 26 496.809 26H485.871V24.9844H488.996V3.57812H485.871V2.5625ZM496.809 3.57812H492.746V24.9844H496.887C502.095 24.9583 504.712 21.3385 504.738 14.125C504.738 12.1719 504.543 10.4792 504.152 9.04688C503.137 5.40104 500.689 3.57812 496.809 3.57812ZM521.637 32.4453H524.215C524.371 32.4453 524.501 32.4583 524.605 32.4844C524.996 32.5365 525.191 32.849 525.191 33.4219H515.504V32.4453C516.285 32.4453 516.871 32.3802 517.262 32.25C517.939 32.0156 518.277 31.3125 518.277 30.1406V10.3359H515.504V9.35938H521.363L521.559 13.5C521.793 12.8229 522.118 12.1979 522.535 11.625C523.811 9.82812 525.621 8.92969 527.965 8.92969C529.553 8.92969 530.921 9.4375 532.066 10.4531C533.759 11.9896 534.605 14.2552 534.605 17.25C534.605 19.8542 533.876 22.0026 532.418 23.6953C530.855 25.4922 528.889 26.3906 526.52 26.3906C524.618 26.2865 522.991 25.6224 521.637 24.3984V32.4453ZM526.559 10.5703C525.673 10.5703 524.853 10.8568 524.098 11.4297C522.431 12.7318 521.598 15.0625 521.598 18.4219C521.598 19.9062 521.78 21.1823 522.145 22.25C522.9 24.3594 524.228 25.4141 526.129 25.4141C526.728 25.4141 527.288 25.2969 527.809 25.0625C529.866 24.125 530.895 21.6641 530.895 17.6797C530.895 16.8724 530.842 16.1042 530.738 15.375C530.27 12.1719 528.876 10.5703 526.559 10.5703ZM544.207 25.0234C544.363 25.0234 544.493 25.0365 544.598 25.0625C544.988 25.1146 545.184 25.4271 545.184 26H535.262V25.0234C536.043 25.0234 536.616 24.9714 536.98 24.8672C537.684 24.6328 538.035 23.9167 538.035 22.7188V10.3359H535.262V9.35938H541.16L541.316 13.1094C541.629 12.3802 542.046 11.7292 542.566 11.1562C543.816 9.80208 545.249 9.125 546.863 9.125C547.15 9.125 547.423 9.15104 547.684 9.20312C548.882 9.46354 549.48 10.1927 549.48 11.3906C549.48 11.5729 549.454 11.7682 549.402 11.9766C549.142 12.7839 548.582 13.1875 547.723 13.1875C547.54 13.1875 547.358 13.1615 547.176 13.1094C546.759 12.9792 546.342 12.5495 545.926 11.8203C545.561 11.1693 545.184 10.8438 544.793 10.8438C544.48 10.8438 544.103 11.026 543.66 11.3906C542.332 12.5104 541.577 14.1901 541.395 16.4297V25.0234H544.207ZM556.934 25.0234C557.09 25.0234 557.22 25.0365 557.324 25.0625C557.715 25.1146 557.91 25.4271 557.91 26H548.809V25.0234C549.59 25.0234 550.176 24.9714 550.566 24.8672C551.374 24.6328 551.777 23.9167 551.777 22.7188V10.3359H548.809V9.35938H555.098V25.0234H556.934ZM555.527 3.77344C555.527 4.11198 555.449 4.45052 555.293 4.78906C554.876 5.64844 554.199 6.07812 553.262 6.07812C552.923 6.07812 552.598 6.01302 552.285 5.88281C551.4 5.46615 550.957 4.76302 550.957 3.77344C550.957 3.4349 551.035 3.09635 551.191 2.75781C551.608 1.89844 552.298 1.46875 553.262 1.46875C553.6 1.46875 553.939 1.54688 554.277 1.70312C555.111 2.14583 555.527 2.83594 555.527 3.77344ZM565.832 25.0234C565.988 25.0234 566.118 25.0365 566.223 25.0625C566.613 25.1146 566.809 25.4271 566.809 26H558.098V25.0234C558.853 25.0234 559.426 24.9714 559.816 24.8672C560.546 24.6328 560.91 23.9167 560.91 22.7188V10.3359H558.098V9.35938H564.035L564.191 13.0312C564.452 12.3802 564.803 11.7943 565.246 11.2734C566.522 9.71094 568.124 8.92969 570.051 8.92969C570.962 8.92969 571.822 9.15104 572.629 9.59375C574.504 10.6354 575.441 12.5234 575.441 15.2578V25.0234H577.277C577.434 25.0234 577.564 25.0365 577.668 25.0625C578.059 25.1146 578.254 25.4271 578.254 26H569.426V25.0234C570.181 25.0234 570.741 24.9583 571.105 24.8281C571.783 24.5938 572.121 23.8906 572.121 22.7188V14.8281C572.121 14.151 572.03 13.526 571.848 12.9531C571.327 11.4427 570.272 10.6875 568.684 10.6875C568.007 10.6875 567.329 10.8958 566.652 11.3125C565.09 12.3542 564.283 14.0599 564.23 16.4297V25.0234H565.832ZM577.895 10.375V9.39844H580.629V5.6875L583.949 4.86719V9.39844H589.848V10.375H583.949V22.25C583.975 24.2031 584.678 25.2057 586.059 25.2578C587.387 25.2318 588.324 24.0599 588.871 21.7422L589.926 21.9375C589.926 21.9635 589.926 21.9896 589.926 22.0156C589.327 24.9583 587.803 26.4297 585.355 26.4297C582.387 26.3255 580.811 24.5677 580.629 21.1562V10.375H577.895ZM597.887 9.90625C597.262 9.90625 596.676 10.0495 596.129 10.3359C594.358 11.2474 593.421 13.2396 593.316 16.3125L597.145 16.4297C598.29 16.4557 599.189 16.3906 599.84 16.2344C600.986 15.9479 601.559 15.1667 601.559 13.8906C601.559 13.3438 601.48 12.8229 601.324 12.3281C600.803 10.7135 599.658 9.90625 597.887 9.90625ZM604.801 22.2109C604.645 22.5495 604.475 22.888 604.293 23.2266C602.965 25.3359 600.842 26.3906 597.926 26.3906C596.181 26.3906 594.618 25.9609 593.238 25.1016C590.816 23.5391 589.605 21.0911 589.605 17.7578C589.605 15.8568 590.022 14.1771 590.855 12.7188C592.34 10.1927 594.658 8.92969 597.809 8.92969C599.475 8.92969 600.96 9.28125 602.262 9.98438C604.137 11.0521 605.074 12.5104 605.074 14.3594C605.074 15.2448 604.775 15.9479 604.176 16.4688C603.264 17.1979 601.142 17.5365 597.809 17.4844L593.316 17.4062C593.342 18.3698 593.421 19.2552 593.551 20.0625C594.176 23.5521 595.868 25.2969 598.629 25.2969C599.02 25.2969 599.423 25.2578 599.84 25.1797C601.663 24.7891 602.991 23.6823 603.824 21.8594L604.801 22.2109ZM619.168 26L618.816 21.9375C617.618 24.8542 615.587 26.3385 612.723 26.3906C611.316 26.3906 610.04 25.974 608.895 25.1406C606.837 23.6302 605.809 21.2734 605.809 18.0703C605.809 15.987 606.303 14.125 607.293 12.4844C608.777 10.1146 610.9 8.92969 613.66 8.92969C615.743 8.92969 617.436 9.59375 618.738 10.9219V1.58594H615.066V0.609375H622.098L622.137 25.0234H624.09C624.246 25.0234 624.389 25.0365 624.52 25.0625C624.858 25.1406 625.027 25.4531 625.027 26H619.168ZM609.52 17.6016C609.52 18.8516 609.65 19.9714 609.91 20.9609C610.561 23.513 611.889 24.7891 613.895 24.7891C614.858 24.7891 615.717 24.4766 616.473 23.8516C618.061 22.4714 618.855 20.1406 618.855 16.8594C618.855 15.401 618.66 14.125 618.27 13.0312C617.514 10.974 616.212 9.94531 614.363 9.94531C613.608 9.94531 612.931 10.1276 612.332 10.4922C610.457 11.5859 609.52 13.9557 609.52 17.6016ZM631.027 17.7969C631.027 15.8958 631.457 14.2031 632.316 12.7188C633.801 10.1927 636.184 8.92969 639.465 8.92969C640.975 8.92969 642.355 9.25521 643.605 9.90625C645.22 10.7656 646.027 11.8333 646.027 13.1094C646.027 13.2656 646.001 13.4349 645.949 13.6172C645.715 14.4505 645.103 14.8542 644.113 14.8281C643.723 14.8021 643.397 14.7109 643.137 14.5547C642.694 14.2943 642.395 13.6172 642.238 12.5234C642.186 12.0807 642.134 11.7682 642.082 11.5859C641.796 10.4661 640.975 9.90625 639.621 9.90625C639.048 9.90625 638.501 10.0104 637.98 10.2188C635.819 11.0781 634.738 13.526 634.738 17.5625C634.738 19.4375 635.051 21.026 635.676 22.3281C636.639 24.3073 638.085 25.2969 640.012 25.2969C640.35 25.2969 640.689 25.2708 641.027 25.2188C643.085 24.8802 644.569 23.7604 645.48 21.8594L646.496 22.1719C646.288 22.6667 646.014 23.1354 645.676 23.5781C644.296 25.4531 642.238 26.3906 639.504 26.3906C637.681 26.3906 636.066 25.9479 634.66 25.0625C632.238 23.526 631.027 21.1042 631.027 17.7969ZM649.887 17.6406C649.913 22.7708 651.553 25.362 654.809 25.4141C657.96 25.388 659.548 22.7448 659.574 17.4844C659.548 12.4844 657.934 9.95833 654.73 9.90625C651.527 9.93229 649.913 12.5104 649.887 17.6406ZM654.848 8.92969C656.697 8.92969 658.35 9.42448 659.809 10.4141C662.152 12.0286 663.324 14.4245 663.324 17.6016C663.324 19.9974 662.569 22.0156 661.059 23.6562C659.392 25.4792 657.27 26.3906 654.691 26.3906C652.816 26.3906 651.124 25.8438 649.613 24.75C647.322 23.0833 646.176 20.6615 646.176 17.4844C646.176 15.1667 646.905 13.2135 648.363 11.625C650.056 9.82812 652.217 8.92969 654.848 8.92969ZM672.34 25.0234C672.47 25.0234 672.6 25.0365 672.73 25.0625C673.095 25.1146 673.277 25.4271 673.277 26H663.941V25.0234C664.801 25.0234 665.439 24.9583 665.855 24.8281C666.559 24.5938 666.91 23.8906 666.91 22.7188V1.58594H663.941V0.609375H670.23V25.0234H672.34ZM681.824 25.0234C681.954 25.0234 682.085 25.0365 682.215 25.0625C682.579 25.1146 682.762 25.4271 682.762 26H673.426V25.0234C674.285 25.0234 674.923 24.9583 675.34 24.8281C676.043 24.5938 676.395 23.8906 676.395 22.7188V1.58594H673.426V0.609375H679.715V25.0234H681.824ZM691.543 9.90625C690.918 9.90625 690.332 10.0495 689.785 10.3359C688.014 11.2474 687.077 13.2396 686.973 16.3125L690.801 16.4297C691.947 16.4557 692.845 16.3906 693.496 16.2344C694.642 15.9479 695.215 15.1667 695.215 13.8906C695.215 13.3438 695.137 12.8229 694.98 12.3281C694.46 10.7135 693.314 9.90625 691.543 9.90625ZM698.457 22.2109C698.301 22.5495 698.132 22.888 697.949 23.2266C696.621 25.3359 694.499 26.3906 691.582 26.3906C689.837 26.3906 688.275 25.9609 686.895 25.1016C684.473 23.5391 683.262 21.0911 683.262 17.7578C683.262 15.8568 683.678 14.1771 684.512 12.7188C685.996 10.1927 688.314 8.92969 691.465 8.92969C693.132 8.92969 694.616 9.28125 695.918 9.98438C697.793 11.0521 698.73 12.5104 698.73 14.3594C698.73 15.2448 698.431 15.9479 697.832 16.4688C696.921 17.1979 694.798 17.5365 691.465 17.4844L686.973 17.4062C686.999 18.3698 687.077 19.2552 687.207 20.0625C687.832 23.5521 689.525 25.2969 692.285 25.2969C692.676 25.2969 693.079 25.2578 693.496 25.1797C695.319 24.7891 696.647 23.6823 697.48 21.8594L698.457 22.2109ZM699.465 17.7969C699.465 15.8958 699.895 14.2031 700.754 12.7188C702.238 10.1927 704.621 8.92969 707.902 8.92969C709.413 8.92969 710.793 9.25521 712.043 9.90625C713.658 10.7656 714.465 11.8333 714.465 13.1094C714.465 13.2656 714.439 13.4349 714.387 13.6172C714.152 14.4505 713.54 14.8542 712.551 14.8281C712.16 14.8021 711.835 14.7109 711.574 14.5547C711.132 14.2943 710.832 13.6172 710.676 12.5234C710.624 12.0807 710.572 11.7682 710.52 11.5859C710.233 10.4661 709.413 9.90625 708.059 9.90625C707.486 9.90625 706.939 10.0104 706.418 10.2188C704.257 11.0781 703.176 13.526 703.176 17.5625C703.176 19.4375 703.488 21.026 704.113 22.3281C705.077 24.3073 706.522 25.2969 708.449 25.2969C708.788 25.2969 709.126 25.2708 709.465 25.2188C711.522 24.8802 713.007 23.7604 713.918 21.8594L714.934 22.1719C714.725 22.6667 714.452 23.1354 714.113 23.5781C712.733 25.4531 710.676 26.3906 707.941 26.3906C706.118 26.3906 704.504 25.9479 703.098 25.0625C700.676 23.526 699.465 21.1042 699.465 17.7969ZM713.871 10.375V9.39844H716.605V5.6875L719.926 4.86719V9.39844H725.824V10.375H719.926V22.25C719.952 24.2031 720.655 25.2057 722.035 25.2578C723.363 25.2318 724.301 24.0599 724.848 21.7422L725.902 21.9375C725.902 21.9635 725.902 21.9896 725.902 22.0156C725.303 24.9583 723.78 26.4297 721.332 26.4297C718.363 26.3255 716.788 24.5677 716.605 21.1562V10.375H713.871ZM733.355 25.0234C733.512 25.0234 733.642 25.0365 733.746 25.0625C734.137 25.1146 734.332 25.4271 734.332 26H725.23V25.0234C726.012 25.0234 726.598 24.9714 726.988 24.8672C727.796 24.6328 728.199 23.9167 728.199 22.7188V10.3359H725.23V9.35938H731.52V25.0234H733.355ZM731.949 3.77344C731.949 4.11198 731.871 4.45052 731.715 4.78906C731.298 5.64844 730.621 6.07812 729.684 6.07812C729.345 6.07812 729.02 6.01302 728.707 5.88281C727.822 5.46615 727.379 4.76302 727.379 3.77344C727.379 3.4349 727.457 3.09635 727.613 2.75781C728.03 1.89844 728.72 1.46875 729.684 1.46875C730.022 1.46875 730.361 1.54688 730.699 1.70312C731.533 2.14583 731.949 2.83594 731.949 3.77344ZM738.621 17.6406C738.647 22.7708 740.288 25.362 743.543 25.4141C746.694 25.388 748.283 22.7448 748.309 17.4844C748.283 12.4844 746.668 9.95833 743.465 9.90625C740.262 9.93229 738.647 12.5104 738.621 17.6406ZM743.582 8.92969C745.431 8.92969 747.085 9.42448 748.543 10.4141C750.887 12.0286 752.059 14.4245 752.059 17.6016C752.059 19.9974 751.303 22.0156 749.793 23.6562C748.126 25.4792 746.004 26.3906 743.426 26.3906C741.551 26.3906 739.858 25.8438 738.348 24.75C736.056 23.0833 734.91 20.6615 734.91 17.4844C734.91 15.1667 735.639 13.2135 737.098 11.625C738.79 9.82812 740.952 8.92969 743.582 8.92969ZM760.371 25.0234C760.527 25.0234 760.658 25.0365 760.762 25.0625C761.152 25.1146 761.348 25.4271 761.348 26H752.637V25.0234C753.392 25.0234 753.965 24.9714 754.355 24.8672C755.085 24.6328 755.449 23.9167 755.449 22.7188V10.3359H752.637V9.35938H758.574L758.73 13.0312C758.991 12.3802 759.342 11.7943 759.785 11.2734C761.061 9.71094 762.663 8.92969 764.59 8.92969C765.501 8.92969 766.361 9.15104 767.168 9.59375C769.043 10.6354 769.98 12.5234 769.98 15.2578V25.0234H771.816C771.973 25.0234 772.103 25.0365 772.207 25.0625C772.598 25.1146 772.793 25.4271 772.793 26H763.965V25.0234C764.72 25.0234 765.28 24.9583 765.645 24.8281C766.322 24.5938 766.66 23.8906 766.66 22.7188V14.8281C766.66 14.151 766.569 13.526 766.387 12.9531C765.866 11.4427 764.811 10.6875 763.223 10.6875C762.546 10.6875 761.868 10.8958 761.191 11.3125C759.629 12.3542 758.822 14.0599 758.77 16.4297V25.0234H760.371Z" fill="white"/>
</svg>
