<svg width="547" height="171" viewBox="0 0 547 171" fill="none" xmlns="http://www.w3.org/2000/svg">
<path d="M65.6112 6.79999C30.1912 6.79999 15.8912 29.02 15.8912 46.84C15.8912 102.06 110.491 87.1 104.771 133.96C103.011 147.82 87.3912 159.92 68.6912 159.92C39.8712 159.92 19.4112 139.9 8.19117 117.46H6.65117L0.0511721 142.54C17.2112 155.52 33.4912 164.32 59.6712 164.32C90.9112 164.32 114.451 145.84 114.451 119.66C114.451 64.66 20.0712 79.18 24.2512 35.18C25.5712 21.98 38.1112 9.65999 59.8912 9.65999C77.2712 9.65999 93.3312 20.88 105.871 50.36H107.411L114.011 27.48C101.031 17.36 82.5512 6.79999 65.6112 6.79999ZM251.088 10.76C251.088 10.32 251.088 8.99999 251.088 8.99999H223.808C223.808 8.99999 223.808 10.32 223.808 10.76C227.328 12.74 228.868 16.04 228.868 23.74V71.04H152.308V23.74C152.308 16.04 153.848 12.74 157.148 10.76C157.148 10.32 157.148 8.99999 157.148 8.99999H129.868C129.868 8.99999 129.868 10.32 129.868 10.76C133.388 12.74 134.928 16.04 134.928 23.74V148.48C134.928 156.18 133.388 159.48 129.868 161.46C129.868 161.9 129.868 163 129.868 163H157.148C157.148 163 157.148 161.9 157.148 161.46C153.848 159.48 152.308 156.18 152.308 148.48V72.58H228.868V148.48C228.868 156.18 227.328 159.48 223.808 161.46C223.808 161.9 223.808 163 223.808 163H251.088C251.088 163 251.088 161.9 251.088 161.46C247.788 159.48 246.248 156.18 246.248 148.48V23.74C246.248 16.04 247.788 12.74 251.088 10.76ZM346.317 6.79999C302.757 6.79999 266.457 42 266.457 85.56C266.457 128.9 302.757 164.32 346.317 164.32C389.877 164.32 426.177 128.9 426.177 85.56C426.177 42 389.877 6.79999 346.317 6.79999ZM368.757 159.04C332.017 170.26 299.457 142.32 287.577 103.38C275.697 64.66 287.137 23.3 323.877 12.08C360.617 0.859989 393.177 28.8 405.057 67.52C416.937 106.46 405.497 147.82 368.757 159.04ZM474.827 8.99999H441.607C441.607 8.99999 441.607 10.32 441.607 10.76C445.127 12.74 446.667 15.82 446.667 23.74V148.48C446.667 156.18 445.127 159.48 441.607 161.46C441.607 161.9 441.607 163 441.607 163H468.887C468.887 163 468.887 161.9 468.887 161.46C465.587 159.48 464.047 156.18 464.047 148.48V98.98H474.827C518.167 98.98 546.987 85.12 546.987 54.1C546.987 22.86 518.167 8.99999 474.827 8.99999ZM474.827 97.22H464.047V10.76H474.827C514.427 10.76 529.607 28.14 529.607 54.1C529.607 79.84 514.427 97.22 474.827 97.22Z" fill="white"/>
</svg>
